<?xml version="1.0" encoding="UTF-8"?>
<svg width="109px" height="24px" viewBox="0 0 109 24" version="1.1" xmlns="http://www.w3.org/2000/svg" xmlns:xlink="http://www.w3.org/1999/xlink">
    <!-- Generator: Sketch 54.1 (76490) - https://sketchapp.com -->
    <title>logo</title>
    <desc>Created with Sketch.</desc>
    <g id="logo" stroke="none" stroke-width="1" fill="none" fill-rule="evenodd">
        <path d="M11.1328125,9.63916016 L9.84326172,9.63916016 L9.5,7.72802734 C9.20312352,7.43733579 8.83821831,7.19921968 8.40527344,7.01367188 C7.97232856,6.82812407 7.45589493,6.73535156 6.85595703,6.73535156 C5.45197866,6.73535156 4.37272513,7.24405416 3.61816406,8.26147461 C2.863603,9.27889506 2.48632812,10.5699792 2.48632812,12.1347656 L2.48632812,12.3481445 C2.48632812,13.912931 2.85587196,15.2071075 3.5949707,16.2307129 C4.33406945,17.2543183 5.35920568,17.7661133 6.67041016,17.7661133 C7.28271791,17.7661133 7.83935296,17.6702484 8.34033203,17.4785156 C8.8413111,17.2867829 9.22786322,17.0517592 9.5,16.7734375 L9.84326172,14.8623047 L11.1328125,14.8623047 L11.1328125,17.2651367 C10.7431621,17.7661158 10.1586953,18.21297 9.37939453,18.6057129 C8.60009376,18.9984557 7.697108,19.1948242 6.67041016,19.1948242 C4.91389096,19.1948242 3.47282464,18.5454167 2.34716797,17.246582 C1.2215113,15.9477474 0.658691406,14.3149512 0.658691406,12.3481445 L0.658691406,12.1533203 C0.658691406,10.1741437 1.21223405,8.53670895 2.31933594,7.2409668 C3.42643783,5.94522464 4.8767814,5.29736328 6.67041016,5.29736328 C7.697108,5.29736328 8.60009376,5.49682418 9.37939453,5.89575195 C10.1586953,6.29467973 10.7431621,6.74153398 11.1328125,7.23632812 L11.1328125,9.63916016 Z M13.0542969,17.8310547 L14.2696289,17.6269531 L18.1104492,12.1904297 L14.3624023,6.87451172 L13.1470703,6.67041016 L13.1470703,5.4921875 L17.5259766,5.4921875 L17.5259766,6.67041016 L16.4405273,6.79101562 L19.1402344,10.8452148 L21.8677734,6.79101562 L20.7823242,6.67041016 L20.7823242,5.4921875 L25.1890625,5.4921875 L25.1890625,6.67041016 L23.9737305,6.87451172 L20.2256836,12.1904297 L24.0572266,17.6269531 L25.2818359,17.8310547 L25.2818359,19 L20.912207,19 L20.912207,17.8310547 L21.9791016,17.7104492 L19.1773438,13.5541992 L16.3663086,17.7104492 L17.4517578,17.8310547 L17.4517578,19 L13.0542969,19 L13.0542969,17.8310547 Z M37.7898438,5.50146484 C39.2618563,5.50146484 40.3905885,5.82771484 41.1760742,6.48022461 C41.9615599,7.13273438 42.3542969,8.05891327 42.3542969,9.25878906 C42.3542969,9.9143913 42.1718443,10.4957657 41.8069336,11.0029297 C41.4420229,11.5100937 40.9194045,11.9090155 40.2390625,12.199707 C40.9750688,12.4409192 41.5054183,12.8336561 41.830127,13.3779297 C42.1548356,13.9222032 42.3171875,14.5932577 42.3171875,15.3911133 L42.3171875,16.4765625 C42.3171875,16.8909526 42.3697586,17.1971019 42.4749024,17.3950195 C42.5800461,17.5929372 42.7532215,17.710449 42.9944336,17.7475586 L43.4397461,17.8032227 L43.4397461,19 L42.4563477,19 C41.7450811,19 41.2394709,18.7526066 40.939502,18.2578125 C40.639533,17.7630184 40.4895508,17.1630895 40.4895508,16.4580078 L40.4895508,15.409668 C40.4895508,14.6736617 40.276174,14.08301 39.8494141,13.6376953 C39.4226541,13.1923806 38.850557,12.9697266 38.1331055,12.9697266 L35.2014649,12.9697266 L35.2014649,17.5712891 L36.7136719,17.8310547 L36.7136719,19 L31.8616211,19 L31.8616211,17.8310547 L33.3738281,17.5712891 L33.3738281,6.93017578 L31.8616211,6.67041016 L31.8616211,5.50146484 L37.7898438,5.50146484 Z M35.2014649,11.5317383 L37.6042969,11.5317383 C38.6248098,11.5317383 39.3669899,11.336916 39.8308594,10.9472656 C40.2947289,10.5576152 40.5266602,9.98861051 40.5266602,9.24023438 C40.5266602,8.5289678 40.3040062,7.96614791 39.8586914,7.55175781 C39.4133767,7.13736772 38.7237677,6.93017578 37.7898438,6.93017578 L35.2014649,6.93017578 L35.2014649,11.5317383 Z M45.1200196,19 L45.1200196,17.8310547 L46.6322266,17.5712891 L46.6322266,6.93017578 L45.1200196,6.67041016 L45.1200196,5.4921875 L55.4920899,5.4921875 L55.4920899,8.73925781 L53.9242188,8.73925781 L53.7757813,6.93017578 L48.4598633,6.93017578 L48.4598633,11.2998047 L53.6273438,11.2998047 L53.6273438,12.737793 L48.4598633,12.737793 L48.4598633,17.5712891 L53.8871094,17.5712891 L54.0355469,15.762207 L55.5941406,15.762207 L55.5941406,19 L45.1200196,19 Z M63.8427735,5.4921875 C65.2838614,5.4921875 66.4048626,5.86327754 67.2058106,6.60546875 C68.0067586,7.34765996 68.4072266,8.32486373 68.4072266,9.53710938 C68.4072266,10.7617249 68.0067586,11.7420211 67.2058106,12.4780273 C66.4048626,13.2140336 65.2838614,13.5820312 63.8427735,13.5820312 L60.9760742,13.5820312 L60.9760742,17.5712891 L62.4882813,17.8310547 L62.4882813,19 L57.6362305,19 L57.6362305,17.8310547 L59.1484375,17.5712891 L59.1484375,6.93017578 L57.6362305,6.67041016 L57.6362305,5.4921875 L63.8427735,5.4921875 Z M60.9760742,12.1533203 L63.8427735,12.1533203 C64.7581426,12.1533203 65.443113,11.9074732 65.8977051,11.4157715 C66.3522972,10.9240698 66.5795899,10.3040402 66.5795899,9.55566406 C66.5795899,8.80728792 66.3522972,8.18261969 65.8977051,7.68164062 C65.443113,7.18066156 64.7581426,6.93017578 63.8427735,6.93017578 L60.9760742,6.93017578 L60.9760742,12.1533203 Z M82.1387696,12.3481445 C82.1387696,14.3149512 81.5744035,15.9477474 80.4456543,17.246582 C79.3169052,18.5454167 77.8557382,19.1948242 76.0621094,19.1948242 C74.3179601,19.1948242 72.9016331,18.5454167 71.813086,17.246582 C70.7245389,15.9477474 70.1802735,14.3149512 70.1802735,12.3481445 L70.1802735,12.1533203 C70.1802735,10.1926985 70.7245389,8.55990236 71.813086,7.25488281 C72.9016331,5.94986327 74.3179601,5.29736328 76.0621094,5.29736328 C77.8557382,5.29736328 79.3169052,5.94986327 80.4456543,7.25488281 C81.5744035,8.55990236 82.1387696,10.1926985 82.1387696,12.1533203 L82.1387696,12.3481445 Z M80.3111328,12.1347656 C80.3111328,10.5637942 79.9354042,9.28198739 79.1839356,8.28930664 C78.432467,7.2966259 77.3918687,6.80029297 76.0621094,6.80029297 C74.7880145,6.80029297 73.7938024,7.2981721 73.0794434,8.29394531 C72.3650844,9.28971852 72.0079102,10.5699792 72.0079102,12.1347656 L72.0079102,12.3481445 C72.0079102,13.9314858 72.3650844,15.2194775 73.0794434,16.2121582 C73.7938024,17.2048389 74.7880145,17.7011719 76.0621094,17.7011719 C77.4104234,17.7011719 78.4556604,17.2063852 79.1978516,16.2167969 C79.9400428,15.2272086 80.3111328,13.9376707 80.3111328,12.3481445 L80.3111328,12.1347656 Z M89.8400391,5.50146484 C91.3120517,5.50146484 92.4407839,5.82771484 93.2262696,6.48022461 C94.0117553,7.13273438 94.4044922,8.05891327 94.4044922,9.25878906 C94.4044922,9.9143913 94.2220396,10.4957657 93.8571289,11.0029297 C93.4922183,11.5100937 92.9695998,11.9090155 92.2892579,12.199707 C93.0252641,12.4409192 93.5556137,12.8336561 93.8803223,13.3779297 C94.205031,13.9222032 94.3673829,14.5932577 94.3673829,15.3911133 L94.3673829,16.4765625 C94.3673829,16.8909526 94.4199539,17.1971019 94.5250977,17.3950195 C94.6302415,17.5929372 94.8034168,17.710449 95.0446289,17.7475586 L95.4899414,17.8032227 L95.4899414,19 L94.506543,19 C93.7952764,19 93.2896663,18.7526066 92.9896973,18.2578125 C92.6897284,17.7630184 92.5397461,17.1630895 92.5397461,16.4580078 L92.5397461,15.409668 C92.5397461,14.6736617 92.3263694,14.08301 91.8996094,13.6376953 C91.4728495,13.1923806 90.9007523,12.9697266 90.1833008,12.9697266 L87.2516602,12.9697266 L87.2516602,17.5712891 L88.7638672,17.8310547 L88.7638672,19 L83.9118164,19 L83.9118164,17.8310547 L85.4240235,17.5712891 L85.4240235,6.93017578 L83.9118164,6.67041016 L83.9118164,5.50146484 L89.8400391,5.50146484 Z M87.2516602,11.5317383 L89.6544922,11.5317383 C90.6750051,11.5317383 91.4171852,11.336916 91.8810547,10.9472656 C92.3449242,10.5576152 92.5768555,9.98861051 92.5768555,9.24023438 C92.5768555,8.5289678 92.3542015,7.96614791 91.9088868,7.55175781 C91.463572,7.13736772 90.773963,6.93017578 89.8400391,6.93017578 L87.2516602,6.93017578 L87.2516602,11.5317383 Z M108.080371,5.4921875 L108.080371,8.47949219 L106.521777,8.47949219 L106.382617,6.93017578 L103.386035,6.93017578 L103.386035,17.5712891 L104.898242,17.8310547 L104.898242,19 L100.046191,19 L100.046191,17.8310547 L101.558398,17.5712891 L101.558398,6.93017578 L98.5525391,6.93017578 L98.4226563,8.47949219 L96.8547852,8.47949219 L96.8547852,5.4921875 L108.080371,5.4921875 Z" id="CXREPORT" fill="#000000" fill-rule="nonzero"></path>
    </g>
</svg>
